HIERARCHY
ROOT Hips
{
    OFFSET 0.000000 0.000000 0.000000
    CHANNELS 6 Xposition Yposition Zposition Zrotation Xrotation Yrotation
    JOINT Spine
    {
        OFFSET -0.000000 14.517291 0.000000
        CHANNELS 3 Zrotation Xrotation Yrotation
        JOINT Spine1
        {
            OFFSET -0.000000 37.558300 0.000000
            CHANNELS 3 Zrotation Xrotation Yrotation
            JOINT Neck
            {
                OFFSET -0.000000 37.404057 3.400369
                CHANNELS 3 Zrotation Xrotation Yrotation
                JOINT Head
                {
                    OFFSET -0.000000 24.785618 -3.540803
                    CHANNELS 3 Zrotation Xrotation Yrotation
                    End Site
                    {
                        OFFSET -0.000000 35.408028 0.000000
                    }
                }
            }
            JOINT LeftShoulder
            {
                OFFSET 6.992933 33.973492 -0.192664
                CHANNELS 3 Zrotation Xrotation Yrotation
                JOINT LeftArm
                {
                    OFFSET 21.527611 0.000000 0.000000
                    CHANNELS 3 Zrotation Xrotation Yrotation
                    JOINT LeftForeArm
                    {
                        OFFSET 56.353916 0.000000 0.000000
                        CHANNELS 3 Zrotation Xrotation Yrotation
                        JOINT LeftHand
                        {
                            OFFSET 47.774071 0.000000 0.000000
                            CHANNELS 3 Zrotation Xrotation Yrotation
                            End Site
                            {
                                OFFSET 26.556021 0.000000 0.000000
                            }
                        }
                    }
                }
            }
            JOINT RightShoulder
            {
                OFFSET -7.065357 33.973492 -0.192664
                CHANNELS 3 Zrotation Xrotation Yrotation
                JOINT RightArm
                {
                    OFFSET -21.527611 0.000000 0.000000
                    CHANNELS 3 Zrotation Xrotation Yrotation
                    JOINT RightForeArm
                    {
                        OFFSET -56.353916 0.000000 0.000000
                        CHANNELS 3 Zrotation Xrotation Yrotation
                        JOINT RightHand
                        {
                            OFFSET -47.774071 0.000000 0.000000
                            CHANNELS 3 Zrotation Xrotation Yrotation
                            End Site
                            {
                                OFFSET -26.556021 0.000000 0.000000
                            }
                        }
                    }
                }
            }
        }
    }
    JOINT LeftUpLeg
    {
        OFFSET 17.704014 0.000000 0.000000
        CHANNELS 3 Zrotation Xrotation Yrotation
        JOINT LeftLeg
        {
            OFFSET -0.000000 -81.181816 0.000000
            CHANNELS 3 Zrotation Xrotation Yrotation
            JOINT LeftFoot
            {
                OFFSET -0.000000 -62.821102 0.000000
                CHANNELS 3 Zrotation Xrotation Yrotation
                JOINT LeftToeBase
                {
                    OFFSET -0.000000 -11.507608 26.556021
                    CHANNELS 3 Zrotation Xrotation Yrotation
                    End Site
                    {
                        OFFSET -0.000000 0.000000 7.081605
                    }
                }
            }
        }
    }
    JOINT RightUpLeg
    {
        OFFSET -17.704014 0.000000 0.000000
        CHANNELS 3 Zrotation Xrotation Yrotation
        JOINT RightLeg
        {
            OFFSET -0.000000 -81.181816 0.000000
            CHANNELS 3 Zrotation Xrotation Yrotation
            JOINT RightFoot
            {
                OFFSET -0.000000 -62.821102 0.000000
                CHANNELS 3 Zrotation Xrotation Yrotation
                JOINT RightToeBase
                {
                    OFFSET -0.000000 -11.507608 26.556021
                    CHANNELS 3 Zrotation Xrotation Yrotation
                    End Site
                    {
                        OFFSET -0.000000 0.000000 7.081605
                    }
                }
            }
        }
    }
}
MOTION
Frames:    12
Frame Time:    0.008333
-19.771433    162.803894    -79.327362    -8.209266    -22.352406    42.296631    2.460771    3.859063    -5.089643    4.529190    11.792614    -2.137383    18.184259    -1.448228    -0.952154    3.640129    -0.443535    -3.419936    14.326448    5.566645    -24.605967    -28.227270    20.284332    -81.039322    17.797808    -56.032745    -84.966362    -13.437421    -43.688900    -22.991135    11.785939    9.031897    -7.979976    30.420422    18.146938    20.805380    -12.092464    4.065298    35.258114    -24.028221    1.324936    30.264572    24.171196    0.039812    6.413018    -5.386105    38.218197    -16.262997    9.600659    -23.125620    35.384071    0.000000    0.000000    0.000000    -88.453598    -44.855812    -55.046494    8.509870    15.972732    -8.692681    19.679007    12.388297    -35.116554    0.000000    0.000000    0.000000    
-19.785625    162.798065    -79.328522    -8.161375    -22.355267    42.329842    2.443845    3.891310    -5.041101    4.569080    11.717097    -2.122259    18.159445    -1.375171    -0.975627    3.627977    -0.495595    -3.428555    14.320745    5.558668    -24.609383    -28.299606    19.813177    -80.003014    17.346888    -55.299877    -85.164955    -13.591825    -42.967796    -23.269085    11.845688    9.006578    -8.026464    30.407991    18.053738    20.775669    -12.060433    4.142987    35.291504    -24.091236    1.386194    30.231243    24.142092    0.056494    6.390300    -5.388654    38.214592    -16.248486    9.584626    -23.124491    35.374149    0.000000    0.000000    0.000000    -88.441315    -44.814682    -55.082081    8.513889    15.941630    -8.709450    19.672993    12.373724    -35.156399    0.000000    0.000000    0.000000    
-19.800953    162.794342    -79.331764    -8.116557    -22.358252    42.362484    2.423292    3.923694    -5.003983    4.624911    11.648499    -2.112850    18.109392    -1.290948    -1.008603    3.630889    -0.571468    -3.438226    14.284997    5.513355    -24.598494    -28.429211    19.430216    -78.863937    16.624176    -54.549179    -85.701248    -13.661493    -42.387119    -23.373711    11.864277    9.006281    -8.036460    30.427607    17.962650    20.747263    -12.032235    4.208839    35.299973    -24.184315    1.422840    30.209084    24.113077    0.068377    6.386118    -5.366519    38.217003    -16.269680    9.588066    -23.110800    35.371788    0.000000    0.000000    0.000000    -88.424484    -44.780289    -55.121075    8.489050    15.921846    -8.701152    19.675013    12.359371    -35.164841    0.000000    0.000000    0.000000    
-19.824398    162.782867    -79.338997    -8.078927    -22.338049    42.389729    2.402457    3.930704    -4.977590    4.657776    11.598232    -2.105562    18.035679    -1.211980    -1.026583    3.681919    -0.656686    -3.421874    14.247086    5.476729    -24.543074    -28.400417    18.980719    -77.865639    15.952680    -53.870258    -86.075676    -13.642028    -41.929058    -23.442492    11.870532    9.028695    -8.025186    30.464485    17.891472    20.725761    -12.039413    4.235932    35.318943    -24.257612    1.444252    30.163771    24.076994    0.052812    6.381878    -5.360759    38.230492    -16.283245    9.577633    -23.100603    35.373016    0.000000    0.000000    0.000000    -88.447052    -44.753780    -55.208862    8.465328    15.899699    -8.688053    19.670706    12.362410    -35.199020    0.000000    0.000000    0.000000    
-19.854021    162.769577    -79.346466    -8.042937    -22.319160    42.417511    2.381517    3.936610    -4.945745    4.697960    11.561975    -2.097757    17.957939    -1.148627    -1.049166    3.724283    -0.739821    -3.413579    14.204329    5.442414    -24.497690    -28.305269    18.445560    -76.916153    15.225345    -53.196445    -86.430496    -13.724611    -41.519222    -23.528715    11.852844    9.065594    -8.033254    30.500391    17.879601    20.732256    -12.076650    4.213731    35.333805    -24.330696    1.430676    30.096388    24.047041    0.032484    6.355897    -5.377249    38.248093    -16.265961    9.569353    -23.098478    35.380318    0.000000    0.000000    0.000000    -88.463676    -44.733089    -55.299053    8.431427    15.877083    -8.683155    19.616705    12.389603    -35.187119    0.000000    0.000000    0.000000    
-19.881075    162.754013    -79.352364    -8.004146    -22.299671    42.449596    2.370686    3.931365    -4.909485    4.709244    11.543161    -2.086186    17.919426    -1.116633    -1.061196    3.740155    -0.791892    -3.410636    14.172699    5.381344    -24.483997    -28.076422    17.860966    -76.018089    14.459978    -52.608749    -86.742287    -13.831893    -41.261662    -23.630800    11.845966    9.094393    -8.039107    30.538593    17.893410    20.733620    -12.125675    4.175104    35.330128    -24.393030    1.404960    30.030985    24.014563    0.013256    6.338214    -5.381144    38.268513    -16.269316    9.568395    -23.095070    35.377163    0.000000    0.000000    0.000000    -88.487038    -44.703770    -55.388519    8.406239    15.860931    -8.642255    19.569944    12.392046    -35.173523    0.000000    0.000000    0.000000    
-19.911095    162.739914    -79.350296    -7.961128    -22.302904    42.485989    2.364406    3.957462    -4.874804    4.744133    11.506124    -2.076502    17.858547    -1.098374    -1.067373    3.754856    -0.809662    -3.401511    14.088605    5.297048    -24.494442    -27.850382    17.205269    -75.022858    13.463112    -51.881161    -87.236504    -13.920517    -40.985634    -23.754559    11.817986    9.103739    -8.056423    30.576225    17.976530    20.732220    -12.208761    4.118202    35.317307    -24.406849    1.386161    29.958586    24.002949    0.015428    6.307880    -5.395005    38.281021    -16.266218    9.566034    -23.102760    35.382603    0.000000    0.000000    0.000000    -88.474503    -44.681915    -55.446270    8.366372    15.850466    -8.624478    19.521082    12.396814    -35.136539    0.000000    0.000000    0.000000    
-19.949337    162.732285    -79.343201    -7.919268    -22.331285    42.524994    2.370836    4.007144    -4.842824    4.777699    11.472883    -2.067442    17.864319    -1.107737    -1.049513    3.669497    -0.802638    -3.398340    14.008129    5.224551    -24.509706    -27.470354    16.793236    -74.086166    12.879103    -51.505531    -87.486137    -14.286990    -40.826382    -24.081200    11.796798    9.098777    -8.090171    30.582239    18.143122    20.763809    -12.317243    4.012177    35.272240    -24.409081    1.328863    29.872717    24.017385    0.033544    6.285929    -5.403802    38.293907    -16.300549    9.567499    -23.104485    35.395195    0.000000    0.000000    0.000000    -88.401657    -44.650944    -55.214603    8.399326    15.775604    -8.812134    19.467554    12.364614    -35.122829    0.000000    0.000000    0.000000    
-19.986551    162.731979    -79.328598    -7.879540    -22.384130    42.566353    2.407634    4.074520    -4.806925    4.772016    11.432681    -2.052340    17.903675    -1.113764    -1.034079    3.585508    -0.797889    -3.402298    13.967594    5.176968    -24.538408    -27.079617    16.358568    -73.144867    12.456356    -51.139816    -87.640793    -14.724178    -40.560547    -24.466097    11.824182    9.086216    -8.144692    30.565853    18.264870    20.781549    -12.354723    4.005350    35.308292    -24.327707    1.396731    29.719194    24.055517    0.073753    6.263092    -5.417335    38.295872    -16.318233    9.557181    -23.108923    35.382530    0.000000    0.000000    0.000000    -88.304893    -44.619461    -55.152821    8.392967    15.747251    -8.815303    19.413168    12.322924    -35.115421    0.000000    0.000000    0.000000    
-20.027349    162.734146    -79.311768    -7.840357    -22.450306    42.603569    2.474824    4.153932    -4.768745    4.721970    11.390194    -2.031469    17.963514    -1.116719    -1.022481    3.490009    -0.799672    -3.414654    13.948460    5.137136    -24.549408    -26.653934    15.923627    -72.249863    11.983797    -50.783417    -87.820801    -15.050646    -40.371143    -24.740597    11.867130    9.057941    -8.191369    30.571287    18.326384    20.779079    -12.385234    3.998861    35.320267    -24.311153    1.424222    29.640776    24.104340    0.129174    6.242889    -5.429812    38.286671    -16.327972    9.551836    -23.109102    35.366863    0.000000    0.000000    0.000000    -88.185631    -44.598408    -55.085552    8.368791    15.726747    -8.769634    19.366802    12.276335    -35.079582    0.000000    0.000000    0.000000    
-20.067053    162.739258    -79.296959    -7.800200    -22.508463    42.644455    2.545850    4.222854    -4.728251    4.646039    11.354605    -2.007541    18.083481    -1.089350    -1.005288    3.335266    -0.849359    -3.433519    13.941656    5.086520    -24.559204    -26.305325    15.473371    -71.349113    11.604416    -50.353153    -87.920624    -15.354552    -40.028076    -25.143368    11.929132    9.030754    -8.244240    30.566704    18.356480    20.776619    -12.391671    4.015847    35.327854    -24.281488    1.466747    29.578846    24.141769    0.176991    6.233822    -5.423433    38.279015    -16.379704    9.558783    -23.099163    35.373337    0.000000    0.000000    0.000000    -88.082031    -44.572990    -55.014351    8.361838    15.706792    -8.747835    19.317430    12.218844    -35.029552    0.000000    0.000000    0.000000    
-20.105570    162.741714    -79.286995    -7.765639    -22.555729    42.679909    2.614759    4.285584    -4.693736    4.574843    11.313704    -1.986030    18.140816    -1.073462    -0.999075    3.268522    -0.869193    -3.443237    13.916456    5.015040    -24.558208    -26.046473    14.924015    -70.434334    11.317528    -49.631882    -87.879196    -15.363574    -39.327953    -25.678213    11.983145    9.016108    -8.272673    30.570061    18.346516    20.762964    -12.373933    4.049463    35.345314    -24.298710    1.504480    29.524897    24.171022    0.212953    6.220785    -5.416503    38.274185    -16.389425    9.544950    -23.102276    35.344509    0.000000    0.000000    0.000000    -87.995583    -44.556530    -54.963692    8.349455    15.681211    -8.739018    19.270588    12.201906    -34.964104    0.000000    0.000000    0.000000    
